<svg width="38" height="26" viewBox="0 0 38 26" fill="none" xmlns="http://www.w3.org/2000/svg">
<path d="M7.12421 12.6118C8.91173 12.6118 10.8307 10.237 10.8307 7.79727C10.8307 5.35712 9.17169 3.7764 7.12421 3.7764C5.07756 3.7764 3.41772 5.35712 3.41772 7.79727C3.41814 10.237 5.2785 12.6118 7.12421 12.6118Z" fill="#333333"/>
<path d="M30.3259 12.6118C32.1134 12.6118 34.0324 10.237 34.0324 7.79727C34.0324 5.35712 32.3729 3.7764 30.3259 3.7764C28.2788 3.7764 26.6194 5.35712 26.6194 7.79727C26.6194 10.237 28.4802 12.6118 30.3259 12.6118Z" fill="#333333"/>
<path d="M18.7879 13.5496C21.5286 13.5496 24.4715 9.90712 24.4715 6.16589C24.4715 2.42424 21.9271 0 18.7879 0C15.6491 0 13.1042 2.42424 13.1042 6.16589C13.1042 9.90712 15.9576 13.5496 18.7879 13.5496Z" fill="#333333"/>
<path d="M28.9558 19.9197C28.2688 18.558 27.7681 17.8718 26.8354 16.9023C26.0292 16.0642 23.6229 14.8833 22.0698 15.4028C20.8311 15.6741 20.7725 16.3874 18.7883 16.3874C16.804 16.3874 16.745 15.6741 15.5058 15.4028C13.9528 14.8833 11.5469 16.0642 10.7402 16.9023C9.80714 17.8718 9.30688 18.5584 8.62034 19.9197C8.27582 20.6025 7.55788 22.5939 8.00329 23.4508C8.56676 24.535 9.93858 24.9838 13.7091 25.4447C15.9676 25.721 18.7883 25.721 18.7883 25.721C18.7883 25.721 21.6081 25.721 23.867 25.4447C27.6375 24.9838 29.0085 24.535 29.5728 23.4508C30.0187 22.5939 29.3003 20.6025 28.9558 19.9197Z" fill="#333333"/>
<path d="M36.9561 16.7658C36.509 15.8775 36.1821 15.4308 35.5738 14.7979C35.048 14.2512 33.479 13.4813 32.4664 13.82C31.6576 13.997 31.6203 14.4621 30.3264 14.4621C29.0324 14.4621 28.9943 13.997 28.1864 13.82C27.3721 13.5479 26.2 13.992 25.4976 14.4605C26.4637 14.8586 27.3223 15.4112 27.8335 15.9424C28.8951 17.0459 29.4682 17.8609 30.1928 19.2968C30.3331 19.5752 30.5223 20.0252 30.6918 20.5456C31.3005 20.5359 32.5647 20.5003 33.6377 20.3689C36.0967 20.0683 36.9913 19.7757 37.3588 19.0687C37.6493 18.5098 37.1813 17.2108 36.9561 16.7658Z" fill="#333333"/>
<path d="M7.38408 19.2964C8.1083 17.8601 8.68139 17.0455 9.74302 15.942C10.2403 15.4254 11.0667 14.8883 12.0011 14.4931C11.3053 14.013 10.0976 13.542 9.26453 13.8204C8.45659 13.9975 8.41849 14.4626 7.12495 14.4626C5.83057 14.4626 5.79248 13.9975 4.98495 13.8204C3.97189 13.4817 2.40331 14.2516 1.8771 14.7983C1.26884 15.4308 0.942733 15.8779 0.494388 16.7662C0.270006 17.2112 -0.198014 18.5102 0.0920917 19.0687C0.459642 19.7761 1.35382 20.0683 3.81239 20.3689C4.96277 20.5096 6.33208 20.5405 6.8788 20.5472C7.10946 19.8511 7.35938 19.3458 7.38408 19.2964Z" fill="#333333"/>
</svg>
