<svg width="50" height="54" viewBox="0 0 50 54" fill="none" xmlns="http://www.w3.org/2000/svg">
<circle cx="25" cy="25" r="25" fill="url(#paint0_radial)" fill-opacity="0.3"/>
<g filter="url(#filter0_b)">
<circle cx="25" cy="34" r="20" fill="black" fill-opacity="0.3"/>
<circle cx="25" cy="34" r="19.5" stroke="white" stroke-opacity="0.2"/>
</g>
<path d="M31.83 31.17C31.7368 31.0768 31.6261 31.0028 31.5042 30.9524C31.3824 30.9019 31.2519 30.8759 31.12 30.8759C30.9881 30.8759 30.8576 30.9019 30.7358 30.9524C30.6139 31.0028 30.5032 31.0768 30.41 31.17C30.3168 31.2633 30.2428 31.374 30.1923 31.4958C30.1419 31.6176 30.1159 31.7482 30.1159 31.88C30.1159 32.0119 30.1419 32.1425 30.1923 32.2643C30.2428 32.3861 30.3168 32.4968 30.41 32.59C30.7856 32.9634 30.9978 33.4705 31 34C31.0002 34.2914 30.9368 34.5793 30.8142 34.8435C30.6915 35.1078 30.5126 35.3421 30.29 35.53C30.1887 35.614 30.105 35.7171 30.0437 35.8334C29.9823 35.9498 29.9445 36.0771 29.9325 36.2081C29.9204 36.339 29.9343 36.4711 29.9733 36.5967C30.0124 36.7223 30.0758 36.839 30.16 36.94C30.2447 37.0406 30.3483 37.1234 30.465 37.1839C30.5817 37.2443 30.7092 37.2812 30.8401 37.2923C30.9711 37.3035 31.1029 37.2887 31.2282 37.2488C31.3534 37.209 31.4696 37.1448 31.57 37.06C32.0171 36.6851 32.3768 36.217 32.6238 35.6884C32.8709 35.1598 32.9992 34.5835 33 34C32.9944 32.9401 32.5744 31.9245 31.83 31.17ZM27.43 26.1C27.2676 26.0298 27.0895 26.0039 26.9138 26.0249C26.7381 26.046 26.5712 26.1133 26.43 26.22L21.65 30H18C17.7348 30 17.4804 30.1054 17.2929 30.2929C17.1054 30.4805 17 30.7348 17 31V37C17 37.2652 17.1054 37.5196 17.2929 37.7071C17.4804 37.8947 17.7348 38 18 38H21.65L26.38 41.78C26.5559 41.9212 26.7744 41.9987 27 42C27.1494 42.0025 27.297 41.9682 27.43 41.9C27.6002 41.819 27.744 41.6915 27.8448 41.5323C27.9457 41.373 27.9995 41.1885 28 41V27C27.9995 26.8115 27.9457 26.627 27.8448 26.4678C27.744 26.3086 27.6002 26.1811 27.43 26.1ZM26 38.92L22.62 36.22C22.4441 36.0789 22.2256 36.0013 22 36H19V32H22C22.2256 31.9987 22.4441 31.9212 22.62 31.78L26 29.08V38.92Z" fill="white"/>
<defs>
<filter id="filter0_b" x="-1" y="8" width="52" height="52" filterUnits="userSpaceOnUse" color-interpolation-filters="sRGB">
<feFlood flood-opacity="0" result="BackgroundImageFix"/>
<feGaussianBlur in="BackgroundImage" stdDeviation="3"/>
<feComposite in2="SourceAlpha" operator="in" result="effect1_backgroundBlur"/>
<feBlend mode="normal" in="SourceGraphic" in2="effect1_backgroundBlur" result="shape"/>
</filter>
<radialGradient id="paint0_radial" cx="0" cy="0" r="1" gradientUnits="userSpaceOnUse" gradientTransform="translate(25 25) rotate(90) scale(25)">
<stop stop-color="white"/>
<stop offset="1" stop-color="white" stop-opacity="0"/>
</radialGradient>
</defs>
</svg>
