<svg width="55" height="42" viewBox="0 0 55 42" fill="none" xmlns="http://www.w3.org/2000/svg">
<path fill-rule="evenodd" clip-rule="evenodd" d="M29.3354 0.000541036C38.573 0.0880616 47.0031 8.01502 47.2176 17.7771C47.2176 17.7771 51.6272 19.8945 53.5898 23.3742C57.7169 30.6892 52.3652 41.7634 43.0022 41.9433C33.6342 42.0033 24.2648 42.033 14.8982 41.9433C8.81343 41.8466 2.95853 37.7431 0.837508 31.9145C-2.08889 23.8704 2.92279 13.7977 11.6795 11.7678C12.152 11.6584 12.3251 11.7975 12.7022 10.911C15.4604 4.60807 21.9335 0.179111 28.851 0.0040695C29.0122 0.000540444 29.1741 -0.000870585 29.3354 0.000541036ZM26.5015 27.4516V15.8912C26.5274 15.1529 27.5059 14.831 27.6279 14.8353C28.1795 14.8946 28.5812 15.2397 28.6043 15.8912V27.4523L31.8118 24.224C32.0157 24.0532 32.0255 23.9431 32.573 23.96C33.0685 24.0052 33.1113 24.1259 33.2529 24.2677C33.651 24.6686 33.6973 25.2897 33.2529 25.7655L28.2966 30.7562C27.8809 31.1501 27.2234 31.148 26.8092 30.7562L21.8529 25.7655C21.1814 25.0469 21.4372 24.79 21.7688 24.3637C22.1375 23.8901 22.8833 23.8351 23.3403 24.2677L26.5015 27.4516Z" fill="#EB3E2E"/>
</svg>
