<svg width="41" height="42" viewBox="0 0 41 42" fill="none" xmlns="http://www.w3.org/2000/svg">
<path d="M40.9769 2.50075C41.0275 2.15389 40.9948 1.80027 40.8815 1.46787C40.7681 1.13548 40.5772 0.833431 40.3238 0.585631C40.0932 0.369364 39.8163 0.206017 39.513 0.107453C39.2098 0.00888941 38.8879 -0.0224167 38.5708 0.0158083C25.3703 1.58389 17.8103 7.36352 13.489 13.0532L11.4686 12.9504C10.7416 12.9136 10.0148 13.0266 9.33534 13.282C8.65586 13.5374 8.03883 13.9294 7.52421 14.4327L4.36871 17.5175C4.33077 17.5548 4.30276 17.6006 4.28715 17.6509C4.27154 17.7013 4.26881 17.7546 4.27919 17.8062C4.28958 17.8578 4.31276 17.9061 4.34671 17.9469C4.38066 17.9877 4.42433 18.0197 4.4739 18.0402L9.50516 20.0796C8.93755 21.4789 8.48471 22.9201 8.15093 24.3896C8.09273 24.6502 8.10236 24.9209 8.17893 25.1769C8.2555 25.4329 8.39656 25.666 8.58919 25.8549L14.5583 31.6731C14.7515 31.8614 14.99 31.9993 15.2519 32.0742C15.5137 32.149 15.7906 32.1584 16.0572 32.1015C17.5604 31.7751 19.0347 31.3324 20.4661 30.7777L22.5523 35.6961C22.5732 35.7446 22.6059 35.7873 22.6477 35.8205C22.6894 35.8536 22.7389 35.8763 22.7916 35.8865C22.8444 35.8966 22.899 35.8939 22.9505 35.8787C23.0019 35.8634 23.0488 35.836 23.0869 35.7989L26.2424 32.7142C26.7571 32.211 27.158 31.6077 27.4192 30.9435C27.6804 30.2793 27.7961 29.5689 27.7588 28.8583L27.6536 26.8832C33.4606 22.7059 39.3465 15.3282 40.9769 2.50075ZM24.3228 20.2167C23.9276 20.6032 23.4239 20.8665 22.8755 20.9732C22.3271 21.0799 21.7587 21.0253 21.2421 20.8162C20.7255 20.607 20.284 20.2528 19.9733 19.7984C19.6626 19.3439 19.4968 18.8096 19.4968 18.263C19.4968 17.7164 19.6626 17.1821 19.9733 16.7276C20.284 16.2731 20.7255 15.9189 21.2421 15.7098C21.7587 15.5007 22.3271 15.446 22.8755 15.5527C23.4239 15.6594 23.9276 15.9227 24.3228 16.3093C24.852 16.8268 25.1496 17.5283 25.1504 18.26C25.1513 18.9916 24.8552 19.6938 24.3272 20.2124L24.3228 20.2167ZM26.0759 14.6127C25.5551 14.1041 25.2003 13.456 25.0564 12.7503C24.9125 12.0446 24.986 11.313 25.2675 10.6481C25.549 9.98326 26.0259 9.41493 26.6379 9.01507C27.2498 8.6152 27.9694 8.40177 28.7055 8.40177C29.4416 8.40177 30.1611 8.6152 30.7731 9.01507C31.3851 9.41493 31.862 9.98326 32.1435 10.6481C32.425 11.313 32.4984 12.0446 32.3545 12.7503C32.2106 13.456 31.8558 14.1041 31.3351 14.6127C30.9891 14.9517 30.578 15.2205 30.1255 15.4039C29.6729 15.5872 29.1878 15.6813 28.698 15.6809C28.2081 15.6805 27.7232 15.5856 27.271 15.4015C26.8188 15.2175 26.4082 14.948 26.0627 14.6084L26.0759 14.6127ZM3.36509 32.727C2.48162 32.4262 1.53384 32.3524 0.612798 32.5128C0.534206 32.5265 0.4534 32.5216 0.377148 32.4985C0.300896 32.4754 0.231418 32.4348 0.174535 32.38C0.100529 32.309 0.0507189 32.2175 0.0318958 32.1178C0.0130726 32.0181 0.0261524 31.9152 0.0693518 31.823C1.02477 29.7537 3.65435 25.5936 8.36568 28.9525C8.39014 28.9742 8.40969 29.0006 8.42306 29.0302C8.43644 29.0597 8.44335 29.0916 8.44335 29.1239C8.44335 29.1562 8.43644 29.1881 8.42306 29.2176C8.40969 29.2471 8.39014 29.2736 8.36568 29.2953C7.72955 29.7826 7.22015 30.4099 6.87896 31.1261C6.53777 31.8424 6.37444 32.6272 6.40226 33.4168C6.40553 33.509 6.44444 33.5965 6.51114 33.6617C6.57784 33.7269 6.66736 33.765 6.76163 33.7682C7.56386 33.7995 8.36243 33.6465 9.09315 33.3213C9.82387 32.9962 10.4664 32.5079 10.969 31.8959C10.9912 31.8698 11.019 31.8488 11.0504 31.8344C11.0818 31.82 11.1161 31.8125 11.1508 31.8125C11.1856 31.8125 11.2198 31.82 11.2513 31.8344C11.2827 31.8488 11.3105 31.8698 11.3327 31.8959C11.9901 32.6628 13.7958 35.152 11.7973 37.5598C10.9172 38.5884 9.65697 39.2352 8.29117 39.3593C6.3409 39.5692 2.75591 40.169 1.27896 41.8185C1.22054 41.8886 1.14352 41.9416 1.05633 41.9718C0.969146 42.0019 0.87515 42.0081 0.784639 41.9895C0.694127 41.9709 0.610591 41.9283 0.543177 41.8664C0.475763 41.8045 0.427071 41.7257 0.402432 41.6386C-0.0971883 39.9077 -0.88168 36.0517 3.36509 32.727Z" fill="#EB3E2E"/>
</svg>
